<svg width="80" height="80" viewBox="0 0 80 80" fill="none" xmlns="http://www.w3.org/2000/svg">
<path fill-rule="evenodd" clip-rule="evenodd" d="M80 40C80 62.0914 62.0914 80 40 80C17.9086 80 0 62.0914 0 40C0 17.9086 17.9086 0 40 0C62.0914 0 80 17.9086 80 40ZM34 26C34 30.4183 30.4183 34 26 34C21.5817 34 18 30.4183 18 26C18 21.5817 21.5817 18 26 18C30.4183 18 34 21.5817 34 26ZM54 62C58.4183 62 62 58.4183 62 54C62 49.5817 58.4183 46 54 46C49.5817 46 46 49.5817 46 54C46 58.4183 49.5817 62 54 62ZM34 54C34 58.4183 30.4183 62 26 62C21.5817 62 18 58.4183 18 54C18 49.5817 21.5817 46 26 46C30.4183 46 34 49.5817 34 54ZM54 34C58.4183 34 62 30.4183 62 26C62 21.5817 58.4183 18 54 18C49.5817 18 46 21.5817 46 26C46 30.4183 49.5817 34 54 34Z" fill="#EF323D"/>
</svg>
