<svg width="209" height="319" viewBox="0 0 209 319" fill="none" xmlns="http://www.w3.org/2000/svg">
<path fill-rule="evenodd" clip-rule="evenodd" d="M144 114C141.791 114 140 115.791 140 118V189C140 191.209 141.791 193 144 193H196C198.209 193 200 191.209 200 189V118C200 115.791 198.209 114 196 114H144ZM158 129C155.791 129 154 130.791 154 133V175C154 177.209 155.791 179 158 179H182C184.209 179 186 177.209 186 175V133C186 130.791 184.209 129 182 129H158Z" fill="#EF323D"/>
<path fill-rule="evenodd" clip-rule="evenodd" d="M131 4C131 1.79086 132.791 0 135 0H205C207.209 0 209 1.79086 209 4V74C209 76.2091 207.209 78 205 78H135C132.791 78 131 76.2091 131 74V4ZM151.057 28.4143C151.057 26.2604 152.803 24.5143 154.957 24.5143C157.111 24.5143 158.857 26.2604 158.857 28.4143V49.5857C158.857 51.7396 157.111 53.4857 154.957 53.4857C152.803 53.4857 151.057 51.7396 151.057 49.5857V28.4143ZM185.043 24.5143C182.889 24.5143 181.143 26.2604 181.143 28.4143V49.5857C181.143 51.7396 182.889 53.4857 185.043 53.4857C187.197 53.4857 188.943 51.7396 188.943 49.5857V28.4143C188.943 26.2604 187.197 24.5143 185.043 24.5143Z" fill="#EF323D"/>
<path fill-rule="evenodd" clip-rule="evenodd" d="M0 245C0 242.791 1.79086 241 4 241H74C76.2091 241 78 242.791 78 245V315C78 317.209 76.2091 319 74 319H4C1.79086 319 0 317.209 0 315V245ZM20.0571 269.414C20.0571 267.26 21.8032 265.514 23.9571 265.514C26.111 265.514 27.8571 267.26 27.8571 269.414V290.586C27.8571 292.74 26.111 294.486 23.9571 294.486C21.8032 294.486 20.0571 292.74 20.0571 290.586V269.414ZM54.0428 265.514C51.8889 265.514 50.1428 267.26 50.1428 269.414V290.586C50.1428 292.74 51.8889 294.486 54.0428 294.486C56.1967 294.486 57.9428 292.74 57.9428 290.586V269.414C57.9428 267.26 56.1967 265.514 54.0428 265.514Z" fill="#EF323D"/>
<path d="M11.4121 22.947C12.1184 24.2144 13.4555 25 14.9063 25H63.6987C65.1495 25 66.4866 24.2144 67.1928 22.947L71.0933 15.947C72.579 13.2808 70.6514 10 67.5992 10H11.0058C7.95358 10 6.02595 13.2808 7.51161 15.947L11.4121 22.947Z" fill="#EF323D"/>
<path d="M18.1239 43.4986C18.7348 45.0104 20.2021 46 21.8326 46H55.2282C56.8587 46 58.326 45.0104 58.9369 43.4986L61.7654 36.4986C62.8279 33.8693 60.8926 31 58.0568 31H19.004C16.1681 31 14.2329 33.8693 15.2953 36.4986L18.1239 43.4986Z" fill="#EF323D"/>
<path d="M25.0663 64.0588C25.5431 65.7959 27.1222 67 28.9236 67H49.1725C50.9739 67 52.5531 65.7959 53.0299 64.0588L54.9512 57.0587C55.65 54.5127 53.734 52 51.0938 52H27.0023C24.3621 52 22.4461 54.5127 23.1449 57.0587L25.0663 64.0588Z" fill="#EF323D"/>
<path d="M142.412 263.947C143.118 265.214 144.455 266 145.906 266H194.699C196.15 266 197.487 265.214 198.193 263.947L202.093 256.947C203.579 254.281 201.651 251 198.599 251H142.006C138.954 251 137.026 254.281 138.512 256.947L142.412 263.947Z" fill="#EF323D"/>
<path d="M149.124 284.499C149.735 286.01 151.202 287 152.833 287H186.228C187.859 287 189.326 286.01 189.937 284.499L192.765 277.499C193.828 274.869 191.893 272 189.057 272H150.004C147.168 272 145.233 274.869 146.295 277.499L149.124 284.499Z" fill="#EF323D"/>
<path d="M156.066 305.059C156.543 306.796 158.122 308 159.924 308H180.173C181.974 308 183.553 306.796 184.03 305.059L185.951 298.059C186.65 295.513 184.734 293 182.094 293H158.002C155.362 293 153.446 295.513 154.145 298.059L156.066 305.059Z" fill="#EF323D"/>
<path fill-rule="evenodd" clip-rule="evenodd" d="M4 115C1.79086 115 0 116.791 0 119V189C0 191.209 1.79086 193 4 193H74C76.2091 193 78 191.209 78 189V119C78 116.791 76.2091 115 74 115H4ZM27.303 167L36.9651 145.069V142.828H20.2141V146.065H32.7151L23.0696 167H27.303ZM55.2126 164.692C56.5186 162.922 57.1716 160.299 57.1716 156.823V152.64C57.1384 149.264 56.4688 146.729 55.1628 145.036C53.8679 143.343 51.8978 142.496 49.2526 142.496C46.5853 142.496 44.5987 143.365 43.2927 145.103C41.9978 146.84 41.3503 149.447 41.3503 152.922V157.105C41.3835 160.481 42.0586 163.032 43.3757 164.759C44.7038 166.474 46.6739 167.332 49.2859 167.332C51.9421 167.332 53.9177 166.452 55.2126 164.692ZM52.2077 147.327C52.8275 148.379 53.1374 150.039 53.1374 152.308V157.77C53.1042 159.95 52.7777 161.555 52.1579 162.584C51.5381 163.602 50.5808 164.111 49.2859 164.111C47.9356 164.111 46.945 163.558 46.3142 162.451C45.6833 161.344 45.3679 159.662 45.3679 157.404V151.926C45.4011 149.801 45.7276 148.24 46.3474 147.244C46.9672 146.237 47.9356 145.733 49.2526 145.733C50.6029 145.733 51.5879 146.265 52.2077 147.327Z" fill="#EF323D"/>
</svg>
