<svg width="266" height="109" viewBox="0 0 266 109" fill="none" xmlns="http://www.w3.org/2000/svg">
<path d="M142.225 0C134.583 0 128.191 6.53225 128.191 14.177V16.6566C121.043 17.009 115.248 18.4092 111.116 21.2461C106.004 24.7559 103.208 29.5238 100.92 33.6754C98.6309 37.827 96.7547 41.3993 94.0281 43.9002C91.7032 46.0329 88.2604 47.496 82.9677 48.1644C82.2832 41.1371 76.3611 35.4973 69.1705 35.4973H14.1539C6.51181 35.4973 0 41.7968 0 49.4415V63.0416C0 70.6864 6.51181 76.9923 14.1539 76.9923H69.1705C76.8126 76.9923 83.2305 70.6867 83.2305 63.0416V57.8695C114.399 58.3602 123.185 66.2151 133.206 74.9823C142.822 83.3948 154.568 92.2264 182.675 92.5979V94.9585C182.675 102.603 189.307 109 196.949 109H251.726C259.368 109 266 102.604 266 94.9585V81.3585C266 73.7138 259.368 67.3235 251.726 67.3235H196.949C189.307 67.3235 182.675 73.7138 182.675 81.3585V83.237C156.721 83.045 149.07 76.326 139.417 67.8817C131.394 60.8631 121.342 53.1821 101.129 49.974C104.898 46.1926 107.165 41.8978 109.185 38.2338C111.356 34.2969 113.319 31.1788 116.458 29.0232C118.904 27.3442 122.79 26.3327 128.195 26.0114V27.7772C128.195 35.4219 134.586 41.6766 142.228 41.6766H197.485C205.127 41.6766 211.518 35.4219 211.518 27.7772V14.1772C211.518 6.53244 205.127 9.78359e-05 197.485 9.78359e-05L142.225 0ZM142.225 9.61766H197.482C200.062 9.61766 201.901 11.5959 201.901 14.177V27.7771C201.901 30.3583 200.062 32.0589 197.482 32.0589H142.225C139.645 32.0589 137.806 30.3583 137.806 27.7771V14.177C137.806 11.5958 139.645 9.61766 142.225 9.61766ZM14.1552 44.9337H69.1718C71.752 44.9337 73.7113 46.8607 73.7113 49.4417V63.0418C73.7113 65.623 71.752 67.5563 69.1718 67.5563H14.1552C11.5749 67.5563 9.61565 65.623 9.61565 63.0418V49.4417C9.61565 46.8606 11.5749 44.9337 14.1552 44.9337ZM196.95 76.9412H251.726C254.306 76.9412 256.386 78.7776 256.386 81.3586V94.7208C256.386 97.3019 254.306 99.3824 251.726 99.3824H196.95C194.369 99.3824 192.29 97.3019 192.29 94.7208V81.3586C192.29 78.7775 194.369 76.9412 196.95 76.9412Z" fill="#EF323D"/>
</svg>
