<svg width="240" height="374" viewBox="0 0 240 374" fill="none" xmlns="http://www.w3.org/2000/svg">
<rect x="0.5" y="0.5" width="239" height="373" rx="14.5" fill="white" stroke="black"/>
<path d="M72.2496 33C61.0647 35.3085 50.8447 43.1821 43.4553 55.1836C36.0659 67.185 32 82.5137 32 98.3714C32 115.896 36.9631 132.702 45.7974 145.094C54.6317 157.485 66.6136 164.447 79.1072 164.447C80.0421 164.447 80.9768 164.408 81.91 164.33V164.581H158.143V164.33C159.076 164.408 160.011 164.447 160.946 164.447C173.44 164.447 185.422 157.485 194.256 145.094C203.09 132.702 208.053 115.896 208.053 98.3714C208.053 82.5137 203.987 67.185 196.598 55.1836C189.209 43.1821 178.989 35.3085 167.804 33H158.143H81.91L72.2496 33Z" fill="#FFEE58"/>
<path d="M94.0086 50.9633C94.0086 91.6866 94.0086 91.6866 94.0086 91.6866V50.9633Z" fill="white"/>
<path d="M94.0086 50.9633C94.0086 91.6866 94.0086 91.6866 94.0086 91.6866" stroke="#D32F2F" stroke-width="10"/>
<path d="M149.321 50.9633C149.321 91.6866 149.321 91.6866 149.321 91.6866V50.9633Z" fill="white"/>
<path d="M149.321 50.9633C149.321 91.6866 149.321 91.6866 149.321 91.6866" stroke="#D32F2F" stroke-width="10"/>
<path d="M121.581 121.405C118.637 121.405 115.814 122.456 113.732 124.326C111.65 126.196 110.481 128.733 110.481 131.379V151.327H132.681V131.379C132.681 128.733 131.512 126.196 129.43 124.326C127.348 122.456 124.525 121.405 121.581 121.405Z" fill="#D32F2F"/>
<path d="M72.2496 214C61.0647 216.308 50.8447 224.182 43.4553 236.184C36.0659 248.185 32 263.514 32 279.371C32 296.896 36.9631 313.702 45.7974 326.094C54.6317 338.485 66.6136 345.447 79.1072 345.447C80.0421 345.447 80.9768 345.408 81.91 345.33V345.581H158.143V345.33C159.076 345.408 160.011 345.447 160.946 345.447C173.44 345.447 185.422 338.485 194.256 326.094C203.09 313.702 208.053 296.896 208.053 279.371C208.053 263.514 203.987 248.185 196.598 236.184C189.209 224.182 178.989 216.308 167.804 214H158.143H81.91L72.2496 214Z" fill="#FFEE58"/>
<path d="M94.0086 231.963C94.0086 272.687 94.0086 272.687 94.0086 272.687V231.963Z" fill="white"/>
<path d="M94.0086 231.963C94.0086 272.687 94.0086 272.687 94.0086 272.687" stroke="#D32F2F" stroke-width="10"/>
<path d="M149.321 231.963C149.321 272.687 149.321 272.687 149.321 272.687V231.963Z" fill="white"/>
<path d="M149.321 231.963C149.321 272.687 149.321 272.687 149.321 272.687" stroke="#D32F2F" stroke-width="10"/>
<path d="M121.581 302.405C118.637 302.405 115.814 303.456 113.732 305.326C111.65 307.196 110.481 309.733 110.481 312.379V332.327H132.681V312.379C132.681 309.733 131.512 307.196 129.43 305.326C127.348 303.456 124.525 302.405 121.581 302.405Z" fill="#D32F2F"/>
</svg>
