<svg width="126" height="98" viewBox="0 0 126 98" fill="none" xmlns="http://www.w3.org/2000/svg">
<path d="M31.447 3.06192C31.6465 3.02075 31.8496 3 32.0534 3L38.3064 3H87.6518H93.9048C94.1085 3 94.3117 3.02075 94.5112 3.06193C102.744 4.76104 109.99 10.4903 115.098 18.7864C120.207 27.0851 122.958 37.5659 122.958 48.3145C122.958 60.1842 119.604 71.6954 113.47 80.2991C107.327 88.9152 98.7394 94.0846 89.4662 94.0847L31.447 3.06192ZM31.447 3.06192C23.2144 4.76103 15.9683 10.4903 10.8603 18.7864C5.75074 27.0851 3.00003 37.5659 3 48.3145C3.00001 60.1842 6.35438 71.6954 12.4882 80.2991C18.6309 88.9152 27.2188 94.0846 36.492 94.0847L31.447 3.06192ZM36.4922 94.0847C36.8304 94.0847 37.1685 94.0778 37.5064 94.0639C37.7611 94.1342 38.0294 94.1718 38.3064 94.1718H87.6518C87.9288 94.1718 88.1971 94.1342 88.4518 94.0639C88.7897 94.0778 89.1278 94.0847 89.466 94.0847H36.4922Z" fill="#FFEE58" stroke="white" stroke-width="6" stroke-linejoin="round"/>
<path d="M32.0534 6C24.8134 7.49425 18.198 12.5908 13.4149 20.3593C8.63182 28.1277 6.00003 38.0499 6 48.3145C6.00001 59.6578 9.21258 70.5366 14.931 78.5576C20.6494 86.5785 28.4052 91.0847 36.4922 91.0847C37.0974 91.0847 37.7024 91.0595 38.3064 91.009V91.1718H87.6518V91.009C88.2558 91.0595 88.8608 91.0847 89.466 91.0847C97.553 91.0847 105.309 86.5785 111.027 78.5576C116.746 70.5366 119.958 59.6578 119.958 48.3145C119.958 38.0499 117.326 28.1278 112.543 20.3593C107.76 12.5908 101.145 7.49426 93.9048 6H87.6518H38.3064L32.0534 6Z" fill="#FFEE58"/>
<path d="M63.9851 63.2238C62.0795 63.2238 60.252 63.904 58.9045 65.1147C57.5571 66.3255 56.8001 67.9676 56.8 69.6798V82.5922H71.1701V69.6798C71.1701 67.9676 70.4131 66.3255 69.0657 65.1147C67.7182 63.904 65.8907 63.2238 63.9851 63.2238V63.2238Z" fill="#D32F2F"/>
<path d="M46.1379 17.6275C46.1379 43.9875 46.1379 43.9875 46.1379 43.9875Z" fill="white"/>
<path d="M46.1379 17.6275C46.1379 43.9875 46.1379 43.9875 46.1379 43.9875" stroke="#D32F2F" stroke-width="8" stroke-linejoin="round"/>
<path d="M81.9412 17.6275C81.9412 43.9875 81.9412 43.9875 81.9412 43.9875Z" fill="white"/>
<path d="M81.9412 17.6275C81.9412 43.9875 81.9412 43.9875 81.9412 43.9875" stroke="#D32F2F" stroke-width="8" stroke-linejoin="round"/>
</svg>
