<svg width="112" height="87" viewBox="0 0 112 87" fill="none" xmlns="http://www.w3.org/2000/svg">
<path d="M28.8622 3H28.5558L28.2558 3.06192C20.9101 4.57801 14.4742 9.68305 9.9521 17.0276C5.42838 24.3748 3.00003 33.6402 3 43.1316C3.00001 53.612 5.96089 63.7906 11.3943 71.4119C16.5268 78.611 23.6121 83.1276 31.3494 83.6185V83.7395H34.3494H77.6506H80.6506V83.6185C88.3879 83.1276 95.4732 78.611 100.606 71.4119C106.039 63.7906 109 53.612 109 43.1316C109 33.6402 106.572 24.3748 102.048 17.0276C97.5258 9.68305 91.0899 4.57802 83.7442 3.06193L83.4442 3H83.1378H77.6506H34.3494L28.8622 3Z" stroke="white" stroke-width="6"/>
<path d="M28.8622 6C22.509 7.31123 16.704 11.7835 12.5067 18.6005C8.30946 25.4174 6.00003 34.1243 6 43.1316C6.00001 53.0856 8.81908 62.6318 13.8371 69.6704C18.855 76.7089 25.6609 80.6631 32.7574 80.6631C33.2884 80.6631 33.8193 80.641 34.3494 80.5967V80.7395H77.6506V80.5967C78.1807 80.641 78.7116 80.6631 79.2426 80.6631C86.3391 80.6631 93.145 76.7089 98.1629 69.6703C103.181 62.6318 106 53.0856 106 43.1316C106 34.1243 103.691 25.4174 99.4933 18.6005C95.296 11.7835 89.491 7.31123 83.1378 6H77.6506H34.3494L28.8622 6Z" fill="#FFEE58"/>
<path d="M41.2216 16.2033C41.2216 39.3345 41.2216 39.3345 41.2216 39.3345V16.2033Z" fill="white"/>
<path d="M41.2216 16.2033C41.2216 39.3345 41.2216 39.3345 41.2216 39.3345" stroke="#D32F2F" stroke-width="8"/>
<path d="M72.6394 16.2033C72.6394 39.3345 72.6394 39.3345 72.6394 39.3345V16.2033Z" fill="white"/>
<path d="M72.6394 16.2033C72.6394 39.3345 72.6394 39.3345 72.6394 39.3345" stroke="#D32F2F" stroke-width="8"/>
<path d="M56.8827 56.2147C55.2106 56.2147 53.6069 56.8116 52.4245 57.874C51.2421 58.9365 50.5778 60.3775 50.5778 61.88V73.2108H63.1877V61.88C63.1877 60.3775 62.5234 58.9365 61.341 57.874C60.1586 56.8116 58.5549 56.2147 56.8827 56.2147Z" fill="#D32F2F"/>
</svg>
