<svg width="256" height="256" viewBox="0 0 256 256" fill="none" xmlns="http://www.w3.org/2000/svg">
<path d="M128 117.333C116.267 117.333 106.667 126.933 106.667 138.667C106.667 150.4 116.267 160 128 160C139.733 160 149.333 150.4 149.333 138.667C149.333 126.933 139.733 117.333 128 117.333ZM192 138.667C192 100.693 158.827 70.4001 120 75.2001C92.0532 78.6134 69.0132 100.907 64.7466 128.747C61.2266 151.68 69.9732 172.587 85.3332 186.347C90.4532 190.933 98.4532 189.867 101.973 183.893L102.08 183.787C104.64 179.307 103.573 173.867 99.7332 170.347C88.7466 160.427 82.7732 145.067 86.7199 128.32C90.2399 113.173 102.507 100.907 117.653 97.2801C145.6 90.5601 170.667 111.68 170.667 138.667C170.667 151.253 165.12 162.453 156.48 170.24C152.64 173.653 151.467 179.2 154.027 183.68L154.133 183.787C157.44 189.44 165.12 191.147 170.133 186.773C183.467 175.04 192 157.867 192 138.667ZM115.52 32.7468C66.2399 38.2934 26.4532 78.9334 21.8666 128.32C18.1332 167.787 35.9466 203.2 64.7466 224.427C69.8666 228.16 77.1199 226.56 80.3199 221.12C82.9866 216.533 81.8132 210.56 77.5466 207.36C53.2266 189.333 38.6132 158.827 43.8399 125.227C49.5999 87.8934 80.7466 58.1334 118.293 53.9734C169.707 48.1068 213.333 88.3201 213.333 138.667C213.333 166.933 199.573 191.787 178.453 207.36C174.187 210.56 173.013 216.427 175.68 221.12C178.88 226.667 186.133 228.16 191.253 224.427C217.6 205.013 234.667 173.867 234.667 138.667C234.667 75.6268 179.947 25.3868 115.52 32.7468Z" fill="#EF323D"/>
</svg>
